<mxfile host="app.diagrams.net" modified="2024-05-16T10:08:36.225Z" agent="Mozilla/5.0 (Macintosh; Intel Mac OS X 10_15_7) AppleWebKit/537.36 (KHTML, like Gecko) Chrome/124.0.0.0 Safari/537.36" etag="QEPiD6USMqZoYBggh7xD" version="24.3.1" type="github">
  <diagram name="Page-1" id="0ePznEa9IRJMLtYx5hQB">
    <mxGraphModel dx="734" dy="408" grid="1" gridSize="10" guides="1" tooltips="1" connect="1" arrows="1" fold="1" page="1" pageScale="1" pageWidth="2000" pageHeight="2000" math="0" shadow="0">
      <root>
        <mxCell id="0" />
        <mxCell id="1" parent="0" />
        <mxCell id="nSfkIonh3HfSZz65me_q-7" style="edgeStyle=orthogonalEdgeStyle;rounded=0;orthogonalLoop=1;jettySize=auto;html=1;" edge="1" parent="1" source="nSfkIonh3HfSZz65me_q-1" target="nSfkIonh3HfSZz65me_q-4">
          <mxGeometry relative="1" as="geometry" />
        </mxCell>
        <mxCell id="nSfkIonh3HfSZz65me_q-10" value="extract" style="edgeLabel;html=1;align=center;verticalAlign=middle;resizable=0;points=[];" vertex="1" connectable="0" parent="nSfkIonh3HfSZz65me_q-7">
          <mxGeometry x="-0.3111" y="1" relative="1" as="geometry">
            <mxPoint as="offset" />
          </mxGeometry>
        </mxCell>
        <mxCell id="nSfkIonh3HfSZz65me_q-1" value="" style="whiteSpace=wrap;html=1;shape=mxgraph.basic.document" vertex="1" parent="1">
          <mxGeometry x="50" y="50" width="100" height="100" as="geometry" />
        </mxCell>
        <mxCell id="nSfkIonh3HfSZz65me_q-8" style="edgeStyle=orthogonalEdgeStyle;rounded=0;orthogonalLoop=1;jettySize=auto;html=1;" edge="1" parent="1" source="nSfkIonh3HfSZz65me_q-2" target="nSfkIonh3HfSZz65me_q-6">
          <mxGeometry relative="1" as="geometry" />
        </mxCell>
        <mxCell id="nSfkIonh3HfSZz65me_q-11" value="extract" style="edgeLabel;html=1;align=center;verticalAlign=middle;resizable=0;points=[];" vertex="1" connectable="0" parent="nSfkIonh3HfSZz65me_q-8">
          <mxGeometry x="0.16" y="1" relative="1" as="geometry">
            <mxPoint as="offset" />
          </mxGeometry>
        </mxCell>
        <mxCell id="nSfkIonh3HfSZz65me_q-2" value="" style="whiteSpace=wrap;html=1;shape=mxgraph.basic.document" vertex="1" parent="1">
          <mxGeometry x="50" y="190" width="100" height="100" as="geometry" />
        </mxCell>
        <mxCell id="nSfkIonh3HfSZz65me_q-9" style="edgeStyle=orthogonalEdgeStyle;rounded=0;orthogonalLoop=1;jettySize=auto;html=1;" edge="1" parent="1" source="nSfkIonh3HfSZz65me_q-3" target="nSfkIonh3HfSZz65me_q-5">
          <mxGeometry relative="1" as="geometry" />
        </mxCell>
        <mxCell id="nSfkIonh3HfSZz65me_q-12" value="extract" style="edgeLabel;html=1;align=center;verticalAlign=middle;resizable=0;points=[];" vertex="1" connectable="0" parent="nSfkIonh3HfSZz65me_q-9">
          <mxGeometry x="0.34" y="1" relative="1" as="geometry">
            <mxPoint as="offset" />
          </mxGeometry>
        </mxCell>
        <mxCell id="nSfkIonh3HfSZz65me_q-3" value="" style="whiteSpace=wrap;html=1;shape=mxgraph.basic.document" vertex="1" parent="1">
          <mxGeometry x="50" y="320" width="100" height="100" as="geometry" />
        </mxCell>
        <mxCell id="nSfkIonh3HfSZz65me_q-14" style="edgeStyle=orthogonalEdgeStyle;rounded=0;orthogonalLoop=1;jettySize=auto;html=1;entryX=0;entryY=0.5;entryDx=0;entryDy=0;" edge="1" parent="1" source="nSfkIonh3HfSZz65me_q-4" target="nSfkIonh3HfSZz65me_q-13">
          <mxGeometry relative="1" as="geometry" />
        </mxCell>
        <mxCell id="nSfkIonh3HfSZz65me_q-17" value="transform" style="edgeLabel;html=1;align=center;verticalAlign=middle;resizable=0;points=[];" vertex="1" connectable="0" parent="nSfkIonh3HfSZz65me_q-14">
          <mxGeometry x="-0.184" y="-2" relative="1" as="geometry">
            <mxPoint as="offset" />
          </mxGeometry>
        </mxCell>
        <mxCell id="nSfkIonh3HfSZz65me_q-4" value="python class" style="rounded=0;whiteSpace=wrap;html=1;" vertex="1" parent="1">
          <mxGeometry x="230" y="80" width="120" height="60" as="geometry" />
        </mxCell>
        <mxCell id="nSfkIonh3HfSZz65me_q-16" value="transform" style="edgeStyle=orthogonalEdgeStyle;rounded=0;orthogonalLoop=1;jettySize=auto;html=1;entryX=0;entryY=0.5;entryDx=0;entryDy=0;" edge="1" parent="1" source="nSfkIonh3HfSZz65me_q-5" target="nSfkIonh3HfSZz65me_q-13">
          <mxGeometry relative="1" as="geometry" />
        </mxCell>
        <mxCell id="nSfkIonh3HfSZz65me_q-5" value="python class" style="rounded=0;whiteSpace=wrap;html=1;" vertex="1" parent="1">
          <mxGeometry x="240" y="350" width="120" height="60" as="geometry" />
        </mxCell>
        <mxCell id="nSfkIonh3HfSZz65me_q-15" style="edgeStyle=orthogonalEdgeStyle;rounded=0;orthogonalLoop=1;jettySize=auto;html=1;entryX=0;entryY=0.5;entryDx=0;entryDy=0;" edge="1" parent="1" source="nSfkIonh3HfSZz65me_q-6" target="nSfkIonh3HfSZz65me_q-13">
          <mxGeometry relative="1" as="geometry" />
        </mxCell>
        <mxCell id="nSfkIonh3HfSZz65me_q-18" value="transform" style="edgeLabel;html=1;align=center;verticalAlign=middle;resizable=0;points=[];" vertex="1" connectable="0" parent="nSfkIonh3HfSZz65me_q-15">
          <mxGeometry x="-0.5429" y="-3" relative="1" as="geometry">
            <mxPoint as="offset" />
          </mxGeometry>
        </mxCell>
        <mxCell id="nSfkIonh3HfSZz65me_q-6" value="python class" style="rounded=0;whiteSpace=wrap;html=1;" vertex="1" parent="1">
          <mxGeometry x="240" y="220" width="120" height="60" as="geometry" />
        </mxCell>
        <mxCell id="nSfkIonh3HfSZz65me_q-19" value="load" style="edgeStyle=orthogonalEdgeStyle;rounded=0;orthogonalLoop=1;jettySize=auto;html=1;" edge="1" parent="1" source="nSfkIonh3HfSZz65me_q-13">
          <mxGeometry relative="1" as="geometry">
            <mxPoint x="670" y="230" as="targetPoint" />
          </mxGeometry>
        </mxCell>
        <mxCell id="nSfkIonh3HfSZz65me_q-13" value="python class" style="rounded=0;whiteSpace=wrap;html=1;" vertex="1" parent="1">
          <mxGeometry x="480" y="200" width="120" height="60" as="geometry" />
        </mxCell>
        <mxCell id="nSfkIonh3HfSZz65me_q-20" value="" style="shape=cylinder3;whiteSpace=wrap;html=1;boundedLbl=1;backgroundOutline=1;size=15;" vertex="1" parent="1">
          <mxGeometry x="670" y="190" width="60" height="80" as="geometry" />
        </mxCell>
      </root>
    </mxGraphModel>
  </diagram>
</mxfile>
